<svg width="21" height="21" viewBox="0 0 21 21" fill="none" xmlns="http://www.w3.org/2000/svg">
<path d="M9.13069 6.87244V8.30682H8.08069V10.0599H9.13069V15.2714H11.289V10.0599H12.7369C12.7369 10.0599 12.8734 9.21932 12.939 8.29953H11.2974V7.10161C11.2974 6.9214 11.5328 6.68078 11.7661 6.68078H12.9411V4.85474H11.3421C9.07756 4.85474 9.13069 6.60994 9.13069 6.87244Z" fill="black"/>
<path d="M10.164 18.2284C12.3029 18.2284 14.3541 17.3788 15.8665 15.8664C17.3789 14.354 18.2285 12.3027 18.2285 10.1639C18.2285 8.02505 17.3789 5.97381 15.8665 4.46142C14.3541 2.94903 12.3029 2.09938 10.164 2.09938C8.02518 2.09938 5.97393 2.94903 4.46154 4.46142C2.94915 5.97381 2.0995 8.02505 2.0995 10.1639C2.0995 12.3027 2.94915 14.354 4.46154 15.8664C5.97393 17.3788 8.02518 18.2284 10.164 18.2284ZM10.164 20.2445C4.59648 20.2445 0.083374 15.7314 0.083374 10.1639C0.083374 4.59636 4.59648 0.083252 10.164 0.083252C15.7316 0.083252 20.2447 4.59636 20.2447 10.1639C20.2447 15.7314 15.7316 20.2445 10.164 20.2445Z" fill="black"/>
</svg>
