<svg width="21" height="21" viewBox="0 0 21 21" fill="none" xmlns="http://www.w3.org/2000/svg">
<path d="M10.1639 18.2287C12.3027 18.2287 14.354 17.379 15.8664 15.8666C17.3788 14.3542 18.2284 12.303 18.2284 10.1641C18.2284 8.0253 17.3788 5.97406 15.8664 4.46167C14.354 2.94928 12.3027 2.09962 10.1639 2.09962C8.02505 2.09962 5.97381 2.94928 4.46142 4.46167C2.94903 5.97406 2.09938 8.0253 2.09938 10.1641C2.09938 12.303 2.94903 14.3542 4.46142 15.8666C5.97381 17.379 8.02505 18.2287 10.1639 18.2287ZM10.1639 20.2448C4.59636 20.2448 0.083252 15.7317 0.083252 10.1641C0.083252 4.5966 4.59636 0.0834961 10.1639 0.0834961C15.7314 0.0834961 20.2445 4.5966 20.2445 10.1641C20.2445 15.7317 15.7314 20.2448 10.1639 20.2448Z" fill="black"/>
<path d="M8.64125 14.8749C12.415 14.8749 14.4794 11.7481 14.4794 9.04119C14.4794 8.95369 14.4794 8.86494 14.4756 8.77744C14.8775 8.4865 15.2244 8.12629 15.5 7.7137C15.1246 7.87923 14.7267 7.98832 14.3194 8.03745C14.7485 7.78097 15.0698 7.37743 15.2238 6.90182C14.8206 7.14065 14.3794 7.3083 13.9194 7.39744C13.6101 7.06808 13.2009 6.84989 12.7551 6.77667C12.3092 6.70344 11.8517 6.77927 11.4533 6.99241C11.055 7.20554 10.738 7.54409 10.5515 7.95561C10.3651 8.36713 10.3195 8.82865 10.4219 9.2687C9.60609 9.22779 8.80801 9.01586 8.0794 8.64666C7.35079 8.27746 6.70793 7.75922 6.1925 7.12557C5.93084 7.5775 5.85098 8.11207 5.96915 8.62074C6.08732 9.1294 6.39466 9.57403 6.82875 9.86432C6.50346 9.85327 6.18533 9.76592 5.9 9.60932V9.63745C5.90056 10.1109 6.06457 10.5696 6.3643 10.936C6.66403 11.3025 7.08109 11.5542 7.545 11.6487C7.36891 11.6972 7.18702 11.7214 7.00438 11.7206C6.87562 11.721 6.74711 11.709 6.62063 11.6849C6.75174 12.0925 7.00705 12.4488 7.35078 12.704C7.69451 12.9592 8.10946 13.1005 8.5375 13.1081C7.81035 13.6792 6.91213 13.9889 5.9875 13.9874C5.82458 13.9881 5.66176 13.9787 5.5 13.9593C6.43845 14.5576 7.52831 14.8753 8.64125 14.8749Z" fill="black"/>
</svg>
