<svg width="31" height="16" viewBox="0 0 31 16" fill="none" xmlns="http://www.w3.org/2000/svg">
<path d="M28.2501 15.875C27.7536 15.876 27.2724 15.7031 26.8901 15.3863L15.5001 5.86629L4.08886 15.0463C3.8715 15.2228 3.62139 15.3546 3.35292 15.4342C3.08445 15.5137 2.8029 15.5394 2.52447 15.5098C2.24603 15.4802 1.9762 15.3958 1.73047 15.2616C1.48474 15.1273 1.26797 14.9458 1.09261 14.7275C0.916091 14.5102 0.784275 14.2601 0.704732 13.9916C0.62519 13.7231 0.59949 13.4416 0.629111 13.1632C0.658732 12.8847 0.743089 12.6149 0.877333 12.3692C1.01158 12.1234 1.19306 11.9067 1.41136 11.7313L14.1614 1.46754C14.5416 1.15499 15.0185 0.984131 15.5107 0.984131C16.0029 0.984131 16.4799 1.15499 16.8601 1.46754L29.6101 12.0925C29.8253 12.2709 30.0031 12.49 30.1335 12.7373C30.2639 12.9845 30.3442 13.255 30.3699 13.5334C30.3955 13.8117 30.366 14.0923 30.2831 14.3592C30.2001 14.6261 30.0653 14.8741 29.8864 15.0888C29.6886 15.3326 29.4393 15.5295 29.1564 15.6654C28.8735 15.8014 28.564 15.873 28.2501 15.875Z" fill="black"/>
</svg>
