<svg width="23" height="22" viewBox="0 0 23 22" fill="none" xmlns="http://www.w3.org/2000/svg">
<path d="M22.9863 5.22388L21.6874 12.2983C21.5802 12.8827 21.2701 13.4113 20.811 13.7919C20.3518 14.1726 19.7728 14.3812 19.1748 14.3815H6.82455L7.29301 16.9194H18.7382C19.2436 16.9194 19.7376 17.0683 20.1578 17.3472C20.578 17.626 20.9056 18.0224 21.099 18.4861C21.2923 18.9499 21.3429 19.4602 21.2444 19.9525C21.1458 20.4448 20.9024 20.897 20.545 21.2519C20.1877 21.6069 19.7324 21.8486 19.2367 21.9465C18.7411 22.0444 18.2273 21.9942 17.7604 21.8021C17.2935 21.61 16.8944 21.2847 16.6137 20.8673C16.3329 20.45 16.183 19.9593 16.183 19.4574C16.1831 19.1689 16.2335 18.8827 16.3321 18.6114H10.0718C10.1703 18.8827 10.2208 19.1689 10.2209 19.4574C10.2216 19.8668 10.1226 20.2704 9.93232 20.6336C9.74201 20.9969 9.46603 21.309 9.12795 21.5433C8.78987 21.7777 8.39972 21.9273 7.99081 21.9794C7.58189 22.0315 7.16636 21.9845 6.77966 21.8426C6.39297 21.7006 6.04661 21.4678 5.77015 21.164C5.49368 20.8603 5.29532 20.4946 5.19199 20.0982C5.08866 19.7018 5.08344 19.2864 5.17677 18.8876C5.27009 18.4887 5.4592 18.1182 5.72794 17.8077L2.7788 1.69194H0.851738C0.625843 1.69194 0.4092 1.60281 0.249468 1.44416C0.0897364 1.28551 0 1.07034 0 0.845972C0 0.621606 0.0897364 0.40643 0.249468 0.247779C0.4092 0.0891289 0.625843 0 0.851738 0H2.7788C3.17639 0.000863841 3.56115 0.139832 3.86643 0.392831C4.17171 0.64583 4.37827 0.99692 4.45033 1.38528L4.97202 4.22986H22.1452C22.2695 4.23011 22.3923 4.25775 22.5046 4.31078C22.6169 4.36381 22.7159 4.4409 22.7946 4.53652C22.877 4.62914 22.9371 4.73916 22.9703 4.85825C23.0035 4.97734 23.0089 5.10237 22.9863 5.22388Z" fill="white"/>
</svg>
