<svg width="14" height="14" viewBox="0 0 14 14" fill="none" xmlns="http://www.w3.org/2000/svg">
<path d="M1.66675 3.6665H12.3334" stroke="black" stroke-width="1.66667" stroke-linecap="round" stroke-linejoin="round"/>
<path d="M5.66675 6.3335V10.3335" stroke="black" stroke-width="1.66667" stroke-linecap="round" stroke-linejoin="round"/>
<path d="M8.3335 6.3335V10.3335" stroke="black" stroke-width="1.66667" stroke-linecap="round" stroke-linejoin="round"/>
<path d="M2.3335 3.6665L3.00016 11.6665C3.00016 12.0201 3.14064 12.3593 3.39069 12.6093C3.64074 12.8594 3.97987 12.9998 4.3335 12.9998H9.66683C10.0205 12.9998 10.3596 12.8594 10.6096 12.6093C10.8597 12.3593 11.0002 12.0201 11.0002 11.6665L11.6668 3.6665" stroke="black" stroke-width="1.66667" stroke-linecap="round" stroke-linejoin="round"/>
<path d="M5 3.66667V1.66667C5 1.48986 5.07024 1.32029 5.19526 1.19526C5.32029 1.07024 5.48986 1 5.66667 1H8.33333C8.51014 1 8.67971 1.07024 8.80474 1.19526C8.92976 1.32029 9 1.48986 9 1.66667V3.66667" stroke="black" stroke-width="1.66667" stroke-linecap="round" stroke-linejoin="round"/>
</svg>
