<svg width="16" height="18" viewBox="0 0 16 18" fill="none" xmlns="http://www.w3.org/2000/svg">
<path d="M1.33325 6.30021C1.33317 5.76198 1.42845 5.22914 1.61352 4.73282C1.79859 4.2365 2.06974 3.78665 2.41113 3.40958C2.75251 3.0325 3.15728 2.73576 3.60178 2.5367C4.04627 2.33763 4.52158 2.24024 4.99992 2.25021C5.56589 2.24682 6.12605 2.37881 6.64325 2.63741C7.16045 2.89601 7.62289 3.27532 7.99992 3.75021C8.37695 3.27532 8.83939 2.89601 9.35659 2.63741C9.8738 2.37881 10.4339 2.24682 10.9999 2.25021C11.4783 2.24024 11.9536 2.33763 12.3981 2.5367C12.8426 2.73576 13.2473 3.0325 13.5887 3.40958C13.9301 3.78665 14.2012 4.2365 14.3863 4.73282C14.5714 5.22914 14.6667 5.76198 14.6666 6.30021C14.6666 10.3172 10.4139 13.3502 7.99992 15.7502C5.59125 13.33 1.33325 10.3202 1.33325 6.30021Z" fill="#E06262"/>
</svg>
