<svg width="15" height="20" viewBox="0 0 15 20" fill="none" xmlns="http://www.w3.org/2000/svg">
<path d="M6.6925 7.3175C6.80986 7.20014 6.87579 7.04097 6.87579 6.875C6.87579 6.70903 6.80986 6.54986 6.6925 6.4325C6.57514 6.31514 6.41597 6.24921 6.25 6.24921C6.08403 6.24921 5.92486 6.31514 5.8075 6.4325L4.0425 8.1975L3.54625 7.745C3.42295 7.63961 3.2635 7.58629 3.10161 7.59629C2.93972 7.6063 2.78805 7.67885 2.67867 7.79862C2.56928 7.9184 2.51075 8.076 2.51543 8.23814C2.52011 8.40027 2.58764 8.55424 2.70375 8.6675L3.64125 9.52375C3.76004 9.6319 3.9159 9.69016 4.0765 9.68643C4.2371 9.68271 4.3901 9.61729 4.50375 9.50375L6.69125 7.31625L6.6925 7.3175ZM6.6925 12.6825C6.7507 12.7406 6.79688 12.8095 6.82839 12.8855C6.8599 12.9614 6.87612 13.0428 6.87612 13.125C6.87612 13.2072 6.8599 13.2886 6.82839 13.3645C6.79688 13.4405 6.7507 13.5094 6.6925 13.5675L4.505 15.755C4.39113 15.8687 4.23778 15.9342 4.07689 15.9376C3.91599 15.9411 3.75994 15.8824 3.64125 15.7738L2.70375 14.9175C2.58764 14.8042 2.52011 14.6503 2.51543 14.4881C2.51075 14.326 2.56928 14.1684 2.67867 14.0486C2.78805 13.9289 2.93972 13.8563 3.10161 13.8463C3.2635 13.8363 3.42295 13.8896 3.54625 13.995L4.0425 14.4487L5.8075 12.6825C5.86556 12.6243 5.93453 12.5781 6.01046 12.5466C6.08639 12.5151 6.16779 12.4989 6.25 12.4989C6.33221 12.4989 6.41361 12.5151 6.48954 12.5466C6.56547 12.5781 6.63444 12.6243 6.6925 12.6825ZM8.75 13.4375C8.58424 13.4375 8.42527 13.5033 8.30806 13.6206C8.19085 13.7378 8.125 13.8967 8.125 14.0625C8.125 14.2283 8.19085 14.3872 8.30806 14.5044C8.42527 14.6217 8.58424 14.6875 8.75 14.6875H11.875C12.0408 14.6875 12.1997 14.6217 12.3169 14.5044C12.4342 14.3872 12.5 14.2283 12.5 14.0625C12.5 13.8967 12.4342 13.7378 12.3169 13.6206C12.1997 13.5033 12.0408 13.4375 11.875 13.4375H8.75ZM8.125 7.8125C8.125 7.64674 8.19085 7.48777 8.30806 7.37056C8.42527 7.25335 8.58424 7.1875 8.75 7.1875H11.875C12.0408 7.1875 12.1997 7.25335 12.3169 7.37056C12.4342 7.48777 12.5 7.64674 12.5 7.8125C12.5 7.97826 12.4342 8.13723 12.3169 8.25444C12.1997 8.37165 12.0408 8.4375 11.875 8.4375H8.75C8.58424 8.4375 8.42527 8.37165 8.30806 8.25444C8.19085 8.13723 8.125 7.97826 8.125 7.8125ZM5.625 2.57796e-07C5.23709 -0.0002031 4.85867 0.11991 4.54189 0.343785C4.2251 0.567661 3.98555 0.884278 3.85625 1.25H1.875C1.37772 1.25 0.900805 1.44754 0.549175 1.79918C0.197544 2.15081 0 2.62772 0 3.125V18.125C0 18.6223 0.197544 19.0992 0.549175 19.4508C0.900805 19.8025 1.37772 20 1.875 20H13.125C13.6223 20 14.0992 19.8025 14.4508 19.4508C14.8025 19.0992 15 18.6223 15 18.125V3.125C15 2.62772 14.8025 2.15081 14.4508 1.79918C14.0992 1.44754 13.6223 1.25 13.125 1.25H11.1438C11.0144 0.884278 10.7749 0.567661 10.4581 0.343785C10.1413 0.11991 9.76291 -0.0002031 9.375 2.57796e-07H5.625ZM5 1.875C5 1.70924 5.06585 1.55027 5.18306 1.43306C5.30027 1.31585 5.45924 1.25 5.625 1.25H9.375C9.54076 1.25 9.69973 1.31585 9.81694 1.43306C9.93415 1.55027 10 1.70924 10 1.875C10 2.04076 9.93415 2.19973 9.81694 2.31694C9.69973 2.43415 9.54076 2.5 9.375 2.5H5.625C5.45924 2.5 5.30027 2.43415 5.18306 2.31694C5.06585 2.19973 5 2.04076 5 1.875ZM1.875 2.5H3.85625C3.98555 2.86572 4.2251 3.18234 4.54189 3.40621C4.85867 3.63009 5.23709 3.7502 5.625 3.75H9.375C9.76291 3.7502 10.1413 3.63009 10.4581 3.40621C10.7749 3.18234 11.0144 2.86572 11.1438 2.5H13.125C13.2908 2.5 13.4497 2.56585 13.5669 2.68306C13.6842 2.80027 13.75 2.95924 13.75 3.125V18.125C13.75 18.2908 13.6842 18.4497 13.5669 18.5669C13.4497 18.6842 13.2908 18.75 13.125 18.75H1.875C1.70924 18.75 1.55027 18.6842 1.43306 18.5669C1.31585 18.4497 1.25 18.2908 1.25 18.125V3.125C1.25 2.95924 1.31585 2.80027 1.43306 2.68306C1.55027 2.56585 1.70924 2.5 1.875 2.5Z" fill="black"/>
</svg>
