<svg width="37" height="37" viewBox="0 0 37 37" fill="none" xmlns="http://www.w3.org/2000/svg">
<path d="M18.5 12.95C17.028 12.95 15.6164 13.5347 14.5756 14.5756C13.5347 15.6164 12.95 17.028 12.95 18.5C12.95 19.972 13.5347 21.3836 14.5756 22.4244C15.6164 23.4653 17.028 24.05 18.5 24.05C19.972 24.05 21.3836 23.4653 22.4244 22.4244C23.4653 21.3836 24.05 19.972 24.05 18.5C24.05 17.028 23.4653 15.6164 22.4244 14.5756C21.3836 13.5347 19.972 12.95 18.5 12.95ZM18.5 9.25C20.9533 9.25 23.306 10.2246 25.0407 11.9593C26.7754 13.694 27.75 16.0467 27.75 18.5C27.75 20.9533 26.7754 23.306 25.0407 25.0407C23.306 26.7754 20.9533 27.75 18.5 27.75C16.0467 27.75 13.694 26.7754 11.9593 25.0407C10.2246 23.306 9.25 20.9533 9.25 18.5C9.25 16.0467 10.2246 13.694 11.9593 11.9593C13.694 10.2246 16.0467 9.25 18.5 9.25ZM30.525 8.7875C30.525 9.40081 30.2814 9.98901 29.8477 10.4227C29.414 10.8564 28.8258 11.1 28.2125 11.1C27.5992 11.1 27.011 10.8564 26.5773 10.4227C26.1436 9.98901 25.9 9.40081 25.9 8.7875C25.9 8.17419 26.1436 7.58599 26.5773 7.15232C27.011 6.71864 27.5992 6.475 28.2125 6.475C28.8258 6.475 29.414 6.71864 29.8477 7.15232C30.2814 7.58599 30.525 8.17419 30.525 8.7875ZM18.5 3.7C13.9231 3.7 13.1757 3.71295 11.0464 3.8073C9.59595 3.87575 8.62285 4.07 7.72005 4.4215C6.96454 4.69888 6.28151 5.14348 5.72205 5.72205C5.14301 6.28149 4.6978 6.96448 4.41965 7.72005C4.06815 8.62655 3.8739 9.5978 3.8073 11.0464C3.7111 13.0888 3.7 13.8028 3.7 18.5C3.7 23.0769 3.71295 23.8243 3.8073 25.9536C3.87575 27.4022 4.07 28.3772 4.41965 29.2781C4.73415 30.0829 5.10415 30.6619 5.71835 31.2761C6.3418 31.8977 6.92085 32.2696 7.71635 32.5766C8.63025 32.93 9.60335 33.1261 11.0464 33.1927C13.0888 33.2889 13.8028 33.3 18.5 33.3C23.0769 33.3 23.8243 33.287 25.9536 33.1927C27.4003 33.1242 28.3753 32.93 29.2781 32.5803C30.0325 32.3016 30.7151 31.8579 31.2761 31.2817C31.8996 30.6582 32.2714 30.0792 32.5785 29.2837C32.93 28.3716 33.1261 27.3966 33.1927 25.9536C33.2889 23.9112 33.3 23.1972 33.3 18.5C33.3 13.9231 33.287 13.1757 33.1927 11.0464C33.1242 9.59965 32.93 8.62285 32.5785 7.72005C32.2997 6.96525 31.8553 6.28253 31.278 5.72205C30.7188 5.14271 30.0357 4.69746 29.2799 4.41965C28.3734 4.06815 27.4003 3.8739 25.9536 3.8073C23.9112 3.7111 23.1972 3.7 18.5 3.7ZM18.5 0C23.5265 0 24.1536 0.0184999 26.1257 0.111C28.0959 0.2035 29.4372 0.51245 30.6175 0.97125C31.8385 1.44115 32.8671 2.07755 33.8957 3.1043C34.8364 4.02911 35.5643 5.14779 36.0288 6.3825C36.4857 7.56095 36.7965 8.90405 36.889 10.8743C36.976 12.8464 37 13.4735 37 18.5C37 23.5265 36.9815 24.1536 36.889 26.1257C36.7965 28.0959 36.4857 29.4372 36.0288 30.6175C35.5657 31.8529 34.8376 32.9718 33.8957 33.8957C32.9706 34.8361 31.852 35.5639 30.6175 36.0288C29.439 36.4857 28.0959 36.7965 26.1257 36.889C24.1536 36.976 23.5265 37 18.5 37C13.4735 37 12.8464 36.9815 10.8743 36.889C8.90405 36.7965 7.5628 36.4857 6.3825 36.0288C5.1473 35.5653 4.02843 34.8372 3.1043 33.8957C2.1634 32.971 1.43547 31.8523 0.97125 30.6175C0.51245 29.439 0.2035 28.0959 0.111 26.1257C0.0240499 24.1536 0 23.5265 0 18.5C0 13.4735 0.0184999 12.8464 0.111 10.8743C0.2035 8.9022 0.51245 7.5628 0.97125 6.3825C1.43419 5.14703 2.16229 4.02804 3.1043 3.1043C4.02869 2.16308 5.14749 1.4351 6.3825 0.97125C7.5628 0.51245 8.9022 0.2035 10.8743 0.111C12.8464 0.0240499 13.4735 0 18.5 0Z" fill="black"/>
</svg>
