<svg width="27" height="24" viewBox="0 0 27 24" fill="none" xmlns="http://www.w3.org/2000/svg">
<path d="M23.872 3.06825L23.8712 3.06748C23.2071 2.42152 22.4237 1.90781 21.5634 1.55462L21.5621 1.55409C20.6695 1.18621 19.712 0.997811 18.7451 1.00002L18.7428 1.00002C17.3833 1.00002 16.0593 1.36933 14.9101 2.06492L14.9101 2.06494C14.6351 2.23135 14.3747 2.41363 14.1285 2.61179L13.5015 3.11639L12.8746 2.61179C12.6283 2.41363 12.368 2.23135 12.093 2.06494L12.093 2.06492C10.9438 1.36933 9.61979 1.00002 8.26032 1.00002C7.27966 1.00002 6.33415 1.18598 5.44101 1.55409L5.43994 1.55453C4.57633 1.9093 3.79947 2.41871 3.13158 3.06778L3.13022 3.0691L3.13021 3.0691C2.46787 3.71033 1.93919 4.47386 1.57375 5.31622L23.872 3.06825ZM23.872 3.06825C24.5339 3.71065 25.0629 4.47452 25.4296 5.3169C25.8096 6.19328 26.0027 7.12039 26 8.07546V8.07832C26 8.97295 25.8159 9.92722 25.4324 10.9221L25.4316 10.9244C25.114 11.7544 24.6437 12.6356 24.0306 13.5437C23.0604 14.9789 21.7078 16.502 19.9988 18.0675C17.1581 20.6676 14.3453 22.4641 14.2431 22.529L14.2429 22.5291L13.5042 22.9993L13.5034 22.9996C13.5027 22.9998 13.5015 23 13.5 23C13.4985 23 13.4973 22.9998 13.4965 22.9996L13.4958 22.9993L12.757 22.5291L12.7492 22.5242L12.7414 22.5194C12.7418 22.5196 12.7414 22.5194 12.7403 22.5187C12.7368 22.5165 12.7255 22.5094 12.7044 22.4959C12.6787 22.4795 12.6427 22.4563 12.597 22.4265C12.5057 22.367 12.3767 22.2818 12.2154 22.1728C11.8927 21.9548 11.4417 21.6423 10.9047 21.2501C9.82924 20.4645 8.41674 19.3646 7.00131 18.0676L7.0012 18.0675M23.872 3.06825L7.0012 18.0675M7.0012 18.0675C5.29239 16.5022 3.93987 14.9792 2.96966 13.5441C2.35778 12.6379 1.88937 11.7556 1.56754 10.9221C1.18409 9.92722 1 8.97295 1 8.07832C1 7.12109 1.19357 6.19283 1.57372 5.3163L7.0012 18.0675Z" stroke="black" stroke-width="2"/>
</svg>
