<svg width="19" height="15" viewBox="0 0 19 15" fill="none" xmlns="http://www.w3.org/2000/svg">
<path d="M16.4491 2.6607L16.4499 2.66265L18.4852 7.44504C18.4853 7.44512 18.4853 7.4452 18.4853 7.44528C18.4949 7.46808 18.5 7.49271 18.5 7.5177V12.3001C18.5 12.3499 18.4803 12.3969 18.4465 12.431C18.4127 12.465 18.3677 12.4835 18.3214 12.4835H16.8693H16.4863L16.3866 12.8532C16.2587 13.327 15.9798 13.7446 15.5935 14.0419C15.2073 14.3392 14.7352 14.5 14.25 14.5C13.7648 14.5 13.2927 14.3392 12.9065 14.0419C12.5202 13.7446 12.2413 13.327 12.1134 12.8532L12.0137 12.4835H11.6307H7.36929H6.98633L6.88655 12.8532C6.7587 13.327 6.47975 13.7446 6.09351 14.0419C5.70732 14.3392 5.2352 14.5 4.75 14.5C4.2648 14.5 3.79268 14.3392 3.40649 14.0419C3.02025 13.7446 2.7413 13.327 2.61345 12.8532L2.51367 12.4835H2.13071H0.678571C0.632344 12.4835 0.587299 12.465 0.553538 12.431C0.519659 12.3969 0.5 12.3499 0.5 12.3001V0.68334C0.5 0.63359 0.519658 0.586577 0.553538 0.552459C0.587301 0.518459 0.632346 0.5 0.678571 0.5H13.5714C13.6177 0.5 13.6627 0.51846 13.6965 0.552458C13.7303 0.586576 13.75 0.633588 13.75 0.68334V2.05002V2.55002H14.25L16.2853 2.55002C16.2854 2.55002 16.2854 2.55002 16.2855 2.55002C16.3197 2.55008 16.3534 2.56025 16.3825 2.57966C16.4117 2.59913 16.435 2.62718 16.4491 2.6607ZM14.25 2.9167H13.75V3.4167V6.8334V7.3334H14.25H17.29H18.0458L17.7502 6.63783L16.298 3.22113L16.1686 2.9167H15.8379H14.25ZM11.6307 12.1168H12.0167L12.1144 11.7434C12.1889 11.4588 12.3184 11.1919 12.4954 10.9582C12.6723 10.7244 12.8932 10.5284 13.1452 10.3811L13.3929 10.2363V9.94943V1.36668V0.86668H12.8929H1.35714H0.857143V1.36668V11.6168V12.1168H1.35714H2.13071H2.51367L2.61345 11.7471C2.7413 11.2733 3.02025 10.8557 3.40649 10.5583C3.79268 10.261 4.2648 10.1002 4.75 10.1002C5.2352 10.1002 5.70732 10.261 6.09351 10.5583C6.47975 10.8557 6.7587 11.2733 6.88655 11.7471L6.98633 12.1168H7.36929H11.6307ZM17.6429 12.1168H18.1429V11.6168V8.20008V7.70008H17.6429H14.25H13.75V8.20008V9.56676V10.0651L14.2484 10.0668C14.7371 10.0684 15.212 10.233 15.5987 10.5357C15.9854 10.8383 16.2622 11.2621 16.385 11.741L16.4813 12.1168H16.8693H17.6429ZM3.71688 13.8513C4.02238 14.0569 4.38191 14.1668 4.75 14.1668C5.24368 14.1668 5.71643 13.9693 6.06443 13.6188C6.41232 13.2685 6.60714 12.7941 6.60714 12.3001C6.60714 11.9317 6.49867 11.5713 6.29505 11.2644C6.09141 10.9575 5.80159 10.7177 5.46184 10.576C5.12206 10.4343 4.74797 10.3971 4.38703 10.4694C4.02611 10.5417 3.69506 10.7201 3.43557 10.9814C3.17611 11.2427 2.9998 11.5752 2.92841 11.9366C2.85702 12.298 2.89363 12.6727 3.03375 13.0133C3.17389 13.354 3.41143 13.6458 3.71688 13.8513ZM13.2169 13.8513C13.5224 14.0569 13.8819 14.1668 14.25 14.1668C14.7437 14.1668 15.2164 13.9693 15.5644 13.6188C15.9123 13.2685 16.1071 12.7941 16.1071 12.3001C16.1071 11.9317 15.9987 11.5713 15.7951 11.2644C15.5914 10.9575 15.3016 10.7177 14.9618 10.576C14.6221 10.4343 14.248 10.3971 13.887 10.4694C13.5261 10.5417 13.1951 10.7201 12.9356 10.9814C12.6761 11.2427 12.4998 11.5752 12.4284 11.9366C12.357 12.298 12.3936 12.6727 12.5338 13.0133C12.6739 13.354 12.9114 13.6458 13.2169 13.8513Z" stroke="black"/>
</svg>
