<svg width="11" height="11" viewBox="0 0 11 11" fill="none" xmlns="http://www.w3.org/2000/svg">
<path d="M3.09375 9.625H7.90625C8.13542 9.625 8.25 9.73958 8.25 9.96875C8.25 10.1979 8.13542 10.3125 7.90625 10.3125H3.09375C2.86458 10.3125 2.75 10.1979 2.75 9.96875C2.75 9.73958 2.86458 9.625 3.09375 9.625Z" fill="#4E4E4E"/>
<path d="M8.59375 4.46875C8.59375 3.64824 8.2678 2.86133 7.68761 2.28114C7.10742 1.70095 6.32051 1.375 5.5 1.375C4.67949 1.375 3.89258 1.70095 3.31239 2.28114C2.7322 2.86133 2.40625 3.64824 2.40625 4.46875C2.40625 5.73787 3.42169 7.392 5.5 9.37337C7.57831 7.392 8.59375 5.73787 8.59375 4.46875ZM5.5 10.3125C2.97894 8.02106 1.71875 6.07269 1.71875 4.46875C1.71875 3.4659 2.11713 2.50412 2.82625 1.795C3.53537 1.08588 4.49715 0.6875 5.5 0.6875C6.50285 0.6875 7.46463 1.08588 8.17375 1.795C8.88287 2.50412 9.28125 3.4659 9.28125 4.46875C9.28125 6.07269 8.02106 8.02106 5.5 10.3125Z" fill="#4E4E4E"/>
<path d="M5.5 5.5C5.7735 5.5 6.03581 5.39135 6.2292 5.19795C6.4226 5.00456 6.53125 4.74225 6.53125 4.46875C6.53125 4.19525 6.4226 3.93294 6.2292 3.73955C6.03581 3.54615 5.7735 3.4375 5.5 3.4375C5.2265 3.4375 4.96419 3.54615 4.7708 3.73955C4.5774 3.93294 4.46875 4.19525 4.46875 4.46875C4.46875 4.74225 4.5774 5.00456 4.7708 5.19795C4.96419 5.39135 5.2265 5.5 5.5 5.5ZM5.5 6.1875C5.04416 6.1875 4.60699 6.00642 4.28466 5.68409C3.96233 5.36176 3.78125 4.92459 3.78125 4.46875C3.78125 4.01291 3.96233 3.57574 4.28466 3.25341C4.60699 2.93108 5.04416 2.75 5.5 2.75C5.95584 2.75 6.39301 2.93108 6.71534 3.25341C7.03767 3.57574 7.21875 4.01291 7.21875 4.46875C7.21875 4.92459 7.03767 5.36176 6.71534 5.68409C6.39301 6.00642 5.95584 6.1875 5.5 6.1875Z" fill="#4E4E4E"/>
</svg>
