<svg width="23" height="24" viewBox="0 0 23 24" fill="none" xmlns="http://www.w3.org/2000/svg">
<path d="M20.5619 10.1538C20.6798 10.8128 20.744 11.5018 20.744 12.2208C20.744 17.8448 17.1368 21.8438 11.6887 21.8438C10.4497 21.8442 9.22283 21.5898 8.0781 21.0952C6.93336 20.6007 5.89323 19.8756 5.01715 18.9614C4.14106 18.0472 3.44618 16.9619 2.97222 15.7674C2.49826 14.5729 2.25451 13.2926 2.25488 11.9998C2.25451 10.7069 2.49826 9.42667 2.97222 8.23216C3.44618 7.03765 4.14106 5.9523 5.01715 5.03812C5.89323 4.12395 6.93336 3.39886 8.0781 2.90429C9.22283 2.40972 10.4497 2.15537 11.6887 2.15576C14.236 2.15576 16.3644 3.13376 17.9974 4.72176L15.338 7.49676V7.48976C14.3481 6.50576 13.0917 6.00076 11.6887 6.00076C8.57605 6.00076 6.04605 8.74476 6.04605 11.9938C6.04605 15.2418 8.57605 17.9918 11.6887 17.9918C14.5129 17.9918 16.4353 16.3068 16.8302 13.9928H11.6887V10.1538H20.5629H20.5619Z" fill="black"/>
</svg>
