<svg width="19" height="19" viewBox="0 0 19 19" fill="none" xmlns="http://www.w3.org/2000/svg">
<path d="M2.1709 10.0938H12.4502C12.6234 10.0938 12.7656 10.035 12.877 9.91748C12.9883 9.79997 13.0439 9.65771 13.0439 9.49072C13.0439 9.32373 12.9883 9.18457 12.877 9.07324C12.7656 8.96191 12.6234 8.90625 12.4502 8.90625H2.20801L4.36035 6.75391C4.47168 6.64258 4.52734 6.50342 4.52734 6.33643C4.52734 6.16943 4.47168 6.03027 4.36035 5.91895C4.27376 5.84473 4.18099 5.79215 4.08203 5.76123C3.98307 5.73031 3.88102 5.73031 3.77588 5.76123C3.67074 5.79215 3.58105 5.84473 3.50684 5.91895L0 9.51855L3.50684 13.1182C3.56868 13.1676 3.63672 13.2078 3.71094 13.2388C3.78516 13.2697 3.85938 13.2852 3.93359 13.2852C4.0944 13.2852 4.23665 13.2295 4.36035 13.1182C4.39746 13.0811 4.42839 13.0378 4.45312 12.9883C4.47786 12.9388 4.49642 12.8893 4.50879 12.8398C4.52116 12.7904 4.52734 12.7409 4.52734 12.6914C4.52734 12.6419 4.52116 12.5924 4.50879 12.543C4.49642 12.4935 4.47786 12.444 4.45312 12.3945C4.42839 12.3451 4.39746 12.3018 4.36035 12.2646L2.1709 10.0938ZM17.8125 0H7.71875C7.38477 0 7.10335 0.114421 6.87451 0.343262C6.64567 0.572103 6.53125 0.853516 6.53125 1.1875V6.53125H7.71875V1.91113C7.71875 1.78743 7.74967 1.66992 7.81152 1.55859C7.87337 1.44727 7.95996 1.35758 8.07129 1.28955C8.18262 1.22152 8.30632 1.1875 8.44238 1.1875H17.0703C17.2682 1.1875 17.4352 1.25863 17.5713 1.40088C17.7074 1.54313 17.7754 1.71322 17.7754 1.91113L17.7939 17.0889C17.7939 17.2868 17.7259 17.4569 17.5898 17.5991C17.4538 17.7414 17.2868 17.8125 17.0889 17.8125H8.44238C8.24447 17.8125 8.07438 17.7414 7.93213 17.5991C7.78988 17.4569 7.71875 17.2868 7.71875 17.0889V12.4502H6.53125V17.8125C6.53125 18.1465 6.64567 18.4279 6.87451 18.6567C7.10335 18.8856 7.38477 19 7.71875 19H17.8125C17.8867 19 17.964 18.9907 18.0444 18.9722C18.1248 18.9536 18.1991 18.932 18.2671 18.9072C18.3351 18.8825 18.4032 18.8485 18.4712 18.8052C18.5392 18.7619 18.598 18.7124 18.6475 18.6567C18.6969 18.6011 18.7433 18.5423 18.7866 18.4805C18.8299 18.4186 18.867 18.3506 18.8979 18.2764C18.9289 18.2021 18.9536 18.1279 18.9722 18.0537C18.9907 17.9795 19 17.8991 19 17.8125V1.1875C19 0.705078 18.7835 0.352539 18.3506 0.129883C18.1774 0.0432943 17.998 0 17.8125 0Z" fill="black"/>
</svg>
