<svg width="13" height="11" viewBox="0 0 13 11" fill="none" xmlns="http://www.w3.org/2000/svg">
<path d="M8.53125 5.16511C8.53125 5.78777 8.31724 6.38492 7.93631 6.8252C7.55538 7.26549 7.03872 7.51284 6.5 7.51284C5.96128 7.51284 5.44462 7.26549 5.06369 6.8252C4.68276 6.38492 4.46875 5.78777 4.46875 5.16511C4.46875 4.54245 4.68276 3.9453 5.06369 3.50502C5.44462 3.06473 5.96128 2.81738 6.5 2.81738C7.03872 2.81738 7.55538 3.06473 7.93631 3.50502C8.31724 3.9453 8.53125 4.54245 8.53125 5.16511Z" fill="black"/>
<path d="M0 5.165C0 5.165 2.4375 0 6.5 0C10.5625 0 13 5.165 13 5.165C13 5.165 10.5625 10.33 6.5 10.33C2.4375 10.33 0 5.165 0 5.165ZM6.5 8.45182C7.25421 8.45182 7.97753 8.10553 8.51083 7.48913C9.04414 6.87273 9.34375 6.03672 9.34375 5.165C9.34375 4.29328 9.04414 3.45727 8.51083 2.84087C7.97753 2.22447 7.25421 1.87818 6.5 1.87818C5.74579 1.87818 5.02247 2.22447 4.48917 2.84087C3.95586 3.45727 3.65625 4.29328 3.65625 5.165C3.65625 6.03672 3.95586 6.87273 4.48917 7.48913C5.02247 8.10553 5.74579 8.45182 6.5 8.45182Z" fill="black"/>
</svg>
