<svg width="13" height="11" viewBox="0 0 13 11" fill="none" xmlns="http://www.w3.org/2000/svg">
<path d="M10.8542 7.79347C12.2362 6.5601 13 5.1626 13 5.1626C13 5.1626 10.5625 0.693848 6.5 0.693848C5.71967 0.696535 4.94817 0.85913 4.23312 1.1716L4.85875 1.79804C5.38479 1.60641 5.94014 1.50771 6.5 1.50635C8.2225 1.50635 9.65169 2.45535 10.699 3.50266C11.203 4.00941 11.6549 4.56551 12.0477 5.1626C12.0006 5.23328 11.9486 5.31129 11.8893 5.3966C11.6171 5.7866 11.2149 6.3066 10.699 6.82254C10.5649 6.9566 10.4252 7.08904 10.2789 7.21741L10.8542 7.79347Z" fill="black"/>
<path d="M9.17883 6.11802C9.36014 5.61089 9.39372 5.0627 9.27565 4.53724C9.15759 4.01177 8.89273 3.53063 8.51191 3.14981C8.13109 2.76899 7.64995 2.50413 7.12448 2.38607C6.59902 2.268 6.05083 2.30158 5.5437 2.48289L6.21239 3.15158C6.52464 3.10689 6.84301 3.13553 7.14227 3.23524C7.44153 3.33495 7.71346 3.50298 7.9365 3.72603C8.15955 3.94907 8.32758 4.221 8.42729 4.52026C8.527 4.81952 8.55564 5.13789 8.51095 5.45014L9.17883 6.11802ZM6.78764 7.17346L7.45551 7.84133C6.94838 8.02264 6.4002 8.05622 5.87473 7.93816C5.34926 7.82009 4.86813 7.55524 4.4873 7.17442C4.10648 6.79359 3.84163 6.31246 3.72356 5.78699C3.6055 5.26152 3.63908 4.71334 3.82039 4.20621L4.48908 4.87489C4.44438 5.18715 4.47302 5.50552 4.57273 5.80478C4.67244 6.10404 4.84048 6.37596 5.06352 6.59901C5.28657 6.82206 5.55849 6.99009 5.85776 7.0898C6.15702 7.18951 6.47539 7.21815 6.78764 7.17346Z" fill="black"/>
<path d="M2.72187 3.107C2.57562 3.237 2.43506 3.36863 2.301 3.50269C1.79696 4.00944 1.34511 4.56554 0.95225 5.16263L1.11069 5.39663C1.38287 5.78663 1.78506 6.30663 2.301 6.82256C3.34831 7.86988 4.77831 8.81888 6.5 8.81888C7.08175 8.81888 7.62938 8.71081 8.14125 8.52638L8.76688 9.15363C8.05182 9.46607 7.28033 9.62867 6.5 9.63138C2.4375 9.63138 0 5.16263 0 5.16263C0 5.16263 0.762937 3.76431 2.14581 2.53175L2.72106 3.10781L2.72187 3.107ZM11.0874 10.3253L1.33738 0.57525L1.91263 0L11.6626 9.75L11.0874 10.3253Z" fill="black"/>
</svg>
