<svg width="25" height="22" viewBox="0 0 25 22" fill="none" xmlns="http://www.w3.org/2000/svg">
<path d="M2.01346 0.000123387C1.75651 -0.00403981 1.50827 0.0972937 1.32212 0.282328C1.14373 0.470067 1.04363 0.723843 1.04363 0.98834C1.04363 1.25284 1.14373 1.50661 1.32212 1.69435L7.90288 8.56768C7.98912 8.65876 8.09208 8.7307 8.2056 8.7792C8.31911 8.82769 8.44083 8.85174 8.56346 8.84989C8.80673 8.84989 9.06923 8.76151 9.25481 8.56768C9.43342 8.38007 9.53369 8.12625 9.53369 7.86167C9.53369 7.59709 9.43342 7.34327 9.25481 7.15566L2.67404 0.282328C2.5877 0.19139 2.48472 0.119538 2.37123 0.0710547C2.25774 0.022571 2.13607 -0.00155196 2.01346 0.000123387ZM22.9865 0.000123387C22.8639 -0.00155196 22.7423 0.022571 22.6288 0.0710547C22.5153 0.119538 22.4123 0.19139 22.326 0.282328L15.7452 7.15566C15.5666 7.34327 15.4663 7.59709 15.4663 7.86167C15.4663 8.12625 15.5666 8.38007 15.7452 8.56768C15.9308 8.76151 16.1933 8.84989 16.4365 8.84989C16.5592 8.85174 16.6809 8.82769 16.7944 8.7792C16.9079 8.7307 17.0109 8.65876 17.0971 8.56768L23.6779 1.69435C23.8563 1.50661 23.9564 1.25284 23.9564 0.98834C23.9564 0.723843 23.8563 0.470067 23.6779 0.282328C23.4917 0.0972937 23.2435 -0.00403981 22.9865 0.000123387ZM0.961538 6.93572C0.431731 6.93572 0 7.38664 0 7.94V10.9529C0 11.5062 0.431731 11.9571 0.961538 11.9571H1.92308V12.9614C1.92308 13.0508 3.84615 20.9957 3.84615 20.9957C4.13173 21.529 4.37212 22 4.80769 22H20.1923C20.7221 22 20.9288 21.5601 21.1538 20.9957C21.1538 20.9957 23.0769 13.0508 23.0769 12.9614V11.9571H24.0385C24.5683 11.9571 25 11.5062 25 10.9529V7.94C25 7.38664 24.5683 6.93572 24.0385 6.93572H20.1019L17.6385 9.5097C17.2635 9.90137 16.7558 10.1364 16.226 10.1364C15.6971 10.1364 15.2192 9.90238 14.8433 9.5097C14.522 9.17833 14.3198 8.74148 14.2708 8.27267C14.2218 7.80387 14.3289 7.33173 14.574 6.93572H10.4269C10.672 7.33184 10.7789 7.80404 10.7297 8.27285C10.6805 8.74166 10.4781 9.17845 10.1567 9.5097C9.78173 9.90137 9.30288 10.1364 8.77404 10.1364C8.24233 10.1311 7.73434 9.90572 7.36154 9.5097L4.89808 6.93572H0.961538ZM8.65385 11.9571C9.18365 11.9571 9.61538 12.4081 9.61538 12.9614V18.9871C9.61538 19.5405 9.18365 19.9914 8.65385 19.9914C8.12404 19.9914 7.69231 19.5405 7.69231 18.9871V12.9614C7.69231 12.4081 8.12404 11.9571 8.65385 11.9571ZM12.5 11.9571C13.0298 11.9571 13.4615 12.4081 13.4615 12.9614V18.9871C13.4615 19.5405 13.0298 19.9914 12.5 19.9914C11.9702 19.9914 11.5385 19.5405 11.5385 18.9871V12.9614C11.5385 12.4081 11.9702 11.9571 12.5 11.9571ZM16.3462 11.9571C16.876 11.9571 17.3077 12.4081 17.3077 12.9614V18.9871C17.3077 19.5405 16.876 19.9914 16.3462 19.9914C15.8163 19.9914 15.3846 19.5405 15.3846 18.9871V12.9614C15.3846 12.4081 15.8163 11.9571 16.3462 11.9571Z" fill="black"/>
</svg>
