<svg width="36" height="36" viewBox="0 0 36 36" fill="none" xmlns="http://www.w3.org/2000/svg">
<path d="M27 32.9999H9C8.20435 32.9999 7.44129 32.6838 6.87868 32.1212C6.31607 31.5586 6 30.7955 6 29.9999V5.99986C6 5.20421 6.31607 4.44114 6.87868 3.87853C7.44129 3.31593 8.20435 2.99986 9 2.99986H19.5C19.5134 2.9981 19.5271 2.9981 19.5405 2.99986H19.5495C19.5637 3.00428 19.5782 3.0073 19.593 3.00886C19.725 3.01786 19.8555 3.04335 19.9815 3.08535H20.0445C20.0722 3.10473 20.0983 3.1263 20.1225 3.14985C20.2859 3.22252 20.4348 3.32416 20.562 3.44985L29.562 12.4499C29.6877 12.577 29.7894 12.7259 29.862 12.8894C29.8751 12.9218 29.8866 12.9548 29.8965 12.9884L29.9115 13.0304C29.9535 13.1549 29.9775 13.2854 29.985 13.4174C29.9863 13.4323 29.9898 13.447 29.9955 13.4609V13.4699C29.9979 13.4797 29.9994 13.4897 30 13.4999V29.9999C30 30.7955 29.6839 31.5586 29.1213 32.1212C28.5587 32.6838 27.7956 32.9999 27 32.9999ZM21.636 20.9999V28.4999H23.046V25.4399H25.236V24.1829H23.046V22.2614H25.5V20.9999H21.636ZM16.086 20.9999V28.4999H17.895C18.654 28.5374 19.389 28.2284 19.893 27.6599C20.4103 26.9997 20.6695 26.1737 20.622 25.3364V24.1214C20.6569 23.2928 20.3905 22.4796 19.872 21.8324C19.3845 21.2774 18.672 20.9714 17.9325 20.9999H16.086ZM10.5 20.9999V28.4999H11.91V25.8614H12.849C13.476 25.8959 14.088 25.6634 14.535 25.2224C14.961 24.7454 15.1815 24.1214 15.15 23.4824C15.1778 22.8287 14.957 22.1888 14.532 21.6914C14.3244 21.4611 14.0683 21.2797 13.7823 21.1601C13.4962 21.0406 13.1872 20.9858 12.8775 20.9999H10.5ZM19.5 5.99986V13.4999H27L19.5 5.99986ZM17.919 27.2429H17.496V22.2614H18.009C18.1883 22.2508 18.3673 22.2853 18.5298 22.3619C18.6923 22.4384 18.833 22.5544 18.939 22.6994C19.1595 23.1539 19.254 23.6594 19.212 24.1634V25.4669C19.245 25.9469 19.1415 26.4269 18.912 26.8484C18.7909 26.9897 18.6372 27.0995 18.4642 27.1682C18.2912 27.237 18.1041 27.2626 17.919 27.2429ZM12.8775 24.5999H11.9085V22.2614H12.891C13.0117 22.2627 13.13 22.2946 13.235 22.3541C13.3399 22.4137 13.428 22.4989 13.491 22.6019C13.653 22.8704 13.731 23.1794 13.716 23.4929C13.7348 23.7846 13.6573 24.0744 13.4955 24.3179C13.4219 24.4102 13.3276 24.4838 13.2203 24.5328C13.1129 24.5818 12.9954 24.6048 12.8775 24.5999Z" fill="#E156A0"/>
</svg>
