<svg width="12" height="11" viewBox="0 0 12 11" fill="none" xmlns="http://www.w3.org/2000/svg">
<path d="M0 10.8279C0 10.8736 0.0181295 10.9173 0.0504003 10.9496C0.0826711 10.9819 0.12644 11 0.172077 11H10.8791C10.9018 11.0002 10.9244 10.9958 10.9454 10.987C10.9664 10.9783 10.9854 10.9653 11.0013 10.9491L11.0023 10.9484L11.0047 10.9442C11.0218 10.9249 11.0344 10.902 11.0415 10.8771C11.0439 10.8692 11.045 10.8616 11.0463 10.8534C11.0477 10.8448 11.0515 10.8372 11.0515 10.8283C11.0515 10.8145 11.0467 10.8024 11.0436 10.7897C11.0426 10.7849 11.0446 10.7801 11.0429 10.7753L9.95537 7.4318C9.94712 7.40591 9.93271 7.38241 9.91338 7.36331L4.02248 1.47206C4.01629 1.46243 4.01181 1.4521 4.00355 1.4435L2.71676 0.156704C2.61612 0.0563525 2.47979 0 2.33767 0C2.19555 0 2.05923 0.0563525 1.95859 0.156704L0.156935 1.95835C0.0557531 2.05954 0 2.1941 0 2.33727C0 2.48044 0.0557531 2.61535 0.156935 2.71653L1.41517 3.97476C1.42136 3.98405 1.42549 3.99472 1.43375 4.00298L7.31536 9.92417C7.33554 9.94473 7.36066 9.95978 7.38832 9.96787L9.69863 10.6562H0.172077C0.149496 10.6561 0.127128 10.6605 0.106252 10.6692C0.0853769 10.6778 0.0664045 10.6904 0.0504211 10.7064C0.0344378 10.7223 0.0217572 10.7413 0.0131053 10.7621C0.00445335 10.783 -4.53435e-08 10.8053 0 10.8279ZM2.18951 3.49122L7.58827 8.8208L7.38969 9.5098L1.7989 3.88184L2.18951 3.49122ZM7.85224 8.59814L2.43249 3.24825L3.27119 2.40954L8.64242 7.79488V8.59814H7.85224ZM8.85683 7.52265L3.51451 2.16622L3.87209 1.80865L9.45118 7.38774L8.85683 7.52265ZM7.91143 8.94229H8.8145C8.86013 8.94229 8.9039 8.92416 8.93617 8.89189C8.96844 8.85962 8.98657 8.81585 8.98657 8.77021V7.84616L9.67729 7.68922L10.6144 10.5698L7.69324 9.69943L7.91143 8.94229ZM0.344155 2.33727C0.344155 2.28599 0.364116 2.23815 0.400252 2.20167L2.2019 0.400021C2.23796 0.364105 2.28678 0.343939 2.33767 0.343939C2.38857 0.343939 2.43738 0.364105 2.47344 0.400021L3.63393 1.56051L1.56109 3.63336L0.400596 2.47287C0.382629 2.45517 0.36838 2.43405 0.358688 2.41077C0.348995 2.38748 0.344054 2.36249 0.344155 2.33727Z" fill="#4E4E4E"/>
</svg>
