<svg width="38" height="38" viewBox="0 0 38 38" fill="none" xmlns="http://www.w3.org/2000/svg">
<path d="M16.0888 12.8356V15.3835H14.2236V18.4976H16.0888V27.7549H19.9227V18.4976H22.4947C22.4947 18.4976 22.737 17.0044 22.8536 15.3705H19.9375V13.2426C19.9375 12.9225 20.3557 12.4951 20.7701 12.4951H22.8573V9.25146H20.017C15.9944 9.25146 16.0888 12.3693 16.0888 12.8356Z" fill="black"/>
<path d="M18.5034 33.3061C22.4293 33.3061 26.1945 31.7466 28.9705 28.9705C31.7466 26.1945 33.3061 22.4293 33.3061 18.5034C33.3061 14.5775 31.7466 10.8123 28.9705 8.0363C26.1945 5.26025 22.4293 3.70068 18.5034 3.70068C14.5775 3.70068 10.8123 5.26025 8.0363 8.0363C5.26025 10.8123 3.70068 14.5775 3.70068 18.5034C3.70068 22.4293 5.26025 26.1945 8.0363 28.9705C10.8123 31.7466 14.5775 33.3061 18.5034 33.3061ZM18.5034 37.0068C8.28397 37.0068 0 28.7228 0 18.5034C0 8.28397 8.28397 0 18.5034 0C28.7228 0 37.0068 8.28397 37.0068 18.5034C37.0068 28.7228 28.7228 37.0068 18.5034 37.0068Z" fill="black"/>
</svg>
