<svg width="11" height="11" viewBox="0 0 11 11" fill="none" xmlns="http://www.w3.org/2000/svg">
<path d="M5.5 10.3125C4.54818 10.3125 3.61773 10.0303 2.82632 9.50145C2.03491 8.97265 1.41808 8.22104 1.05383 7.34167C0.689585 6.4623 0.594282 5.49466 0.779973 4.56113C0.965664 3.6276 1.42401 2.77009 2.09705 2.09705C2.77009 1.42401 3.6276 0.965664 4.56113 0.779973C5.49466 0.594282 6.4623 0.689585 7.34167 1.05383C8.22104 1.41808 8.97265 2.03491 9.50145 2.82632C10.0303 3.61773 10.3125 4.54818 10.3125 5.5C10.3125 6.77636 9.80547 8.00043 8.90295 8.90295C8.00043 9.80547 6.77636 10.3125 5.5 10.3125ZM5.5 1.375C4.68415 1.375 3.88663 1.61693 3.20828 2.07019C2.52992 2.52345 2.00121 3.16769 1.689 3.92143C1.37679 4.67518 1.2951 5.50458 1.45426 6.30475C1.61343 7.10492 2.00629 7.83993 2.58319 8.41682C3.16008 8.99371 3.89508 9.38658 4.69525 9.54574C5.49543 9.7049 6.32483 9.62322 7.07857 9.311C7.83232 8.99879 8.47655 8.47008 8.92981 7.79173C9.38307 7.11338 9.625 6.31585 9.625 5.5C9.625 4.40598 9.1904 3.35677 8.41682 2.58319C7.64323 1.8096 6.59402 1.375 5.5 1.375Z" fill="#4E4E4E"/>
<path d="M7.07781 7.5625L5.15625 5.64094V2.40625H5.84375V5.35562L7.5625 7.07781L7.07781 7.5625Z" fill="#4E4E4E"/>
</svg>
