<svg width="19" height="19" viewBox="0 0 19 19" fill="none" xmlns="http://www.w3.org/2000/svg">
<path d="M9.5 0.5C10.6272 0.5 11.7082 0.947766 12.5052 1.7448C13.3022 2.54183 13.75 3.62283 13.75 4.75C13.75 5.87717 13.3022 6.95817 12.5052 7.7552C11.7082 8.55223 10.6272 9 9.5 9C8.37283 9 7.29183 8.55223 6.4948 7.7552C5.69777 6.95817 5.25 5.87717 5.25 4.75C5.25 3.62283 5.69777 2.54183 6.4948 1.7448C7.29183 0.947766 8.37283 0.5 9.5 0.5ZM9.50001 18.5H9.49999H9.49981H9.49876L9.49411 18.5L9.47476 18.4999L9.39748 18.4994C9.32937 18.4989 9.22891 18.4977 9.10072 18.4954C8.84429 18.4909 8.47721 18.4817 8.03644 18.4633C7.15363 18.4265 5.98098 18.3531 4.81202 18.207C3.63554 18.0599 2.4947 17.8429 1.65994 17.5299C1.24096 17.3728 0.932848 17.2036 0.737455 17.0326C0.548491 16.8673 0.5 16.7342 0.5 16.625C0.5 15.4606 1.47361 14.1072 3.19334 13.0089C4.88287 11.9299 7.16506 11.1875 9.5 11.1875C11.8349 11.1875 14.1171 11.9299 15.8067 13.0089C17.5264 14.1072 18.5 15.4606 18.5 16.625C18.5 16.7342 18.4515 16.8673 18.2625 17.0326C18.0672 17.2036 17.759 17.3728 17.3401 17.5299C16.5053 17.8429 15.3645 18.0599 14.188 18.207C13.019 18.3531 11.8464 18.4265 10.9636 18.4633C10.5228 18.4817 10.1557 18.4909 9.89928 18.4954C9.77109 18.4977 9.67063 18.4989 9.60252 18.4994L9.52524 18.4999L9.50589 18.5L9.50124 18.5H9.50019H9.50001Z" stroke="black"/>
</svg>
