<svg width="21" height="19" viewBox="0 0 21 19" fill="none" xmlns="http://www.w3.org/2000/svg">
<path d="M19.5403 4.48381C19.2455 3.80207 18.8204 3.18428 18.2889 2.66503C17.757 2.14423 17.1298 1.73036 16.4415 1.44592C15.7277 1.14981 14.9622 0.998239 14.1894 1.00002C13.1051 1.00002 12.0472 1.29656 11.1279 1.85669C10.908 1.99068 10.699 2.13785 10.5011 2.2982C10.3031 2.13785 10.0942 1.99068 9.87428 1.85669C8.95496 1.29656 7.89709 1.00002 6.81282 1.00002C6.03206 1.00002 5.27549 1.14938 4.56071 1.44592C3.87012 1.73148 3.24771 2.14224 2.71327 2.66503C2.18103 3.1837 1.75586 3.80163 1.46186 4.48381C1.15615 5.19331 1 5.94674 1 6.72214C1 7.45361 1.14955 8.21582 1.44646 8.99122C1.69499 9.63922 2.05128 10.3114 2.50654 10.9901C3.22792 12.0643 4.21981 13.1845 5.45144 14.3202C7.49241 16.2026 9.51359 17.503 9.59936 17.5557L10.1206 17.8896C10.3515 18.0368 10.6484 18.0368 10.8794 17.8896L11.4006 17.5557C11.4864 17.5008 13.5054 16.2026 15.5485 14.3202C16.7802 13.1845 17.7721 12.0643 18.4934 10.9901C18.9487 10.3114 19.3072 9.63922 19.5535 8.99122C19.8504 8.21582 20 7.45361 20 6.72214C20.0022 5.94674 19.846 5.19331 19.5403 4.48381Z" stroke="black"/>
</svg>
